<svg xmlns="http://www.w3.org/2000/svg" xmlns:xlink="http://www.w3.org/1999/xlink" viewBox="0 0 8.1 8.2"><defs><path id="a" d="M0 0h8.1v8.2H0z"/></defs><clipPath id="b"><use xlink:href="#a" overflow="visible"/></clipPath><path d="M4.1 7.8c2 0 3.7-1.7 3.7-3.7S6.1.4 4.1.4.4 2 .4 4.1 2 7.8 4.1 7.8" clip-path="url(#b)" fill="#fff"/><path d="M4.1 7.8c2 0 3.7-1.7 3.7-3.7S6.1.4 4.1.4.4 2 .4 4.1 2 7.8 4.1 7.8z" clip-path="url(#b)" fill="none" stroke="#00a9d4" stroke-width=".75"/><path d="M4.1 6.3c1.2 0 2.2-1 2.2-2.2 0-1.2-1-2.2-2.2-2.2s-2.2 1-2.2 2.2c0 1.2 1 2.2 2.2 2.2" clip-path="url(#b)" fill="#00a9d4"/></svg>