<?xml version="1.0" encoding="utf-8"?>
<!-- Generator: Adobe Illustrator 22.0.1, SVG Export Plug-In . SVG Version: 6.00 Build 0)  -->
<svg version="1.1" id="Calque_1" xmlns="http://www.w3.org/2000/svg" xmlns:xlink="http://www.w3.org/1999/xlink" x="0px" y="0px"
	 viewBox="0 0 8.1 8.2" style="enable-background:new 0 0 8.1 8.2;" xml:space="preserve">
<style type="text/css">
	.st0{clip-path:url(#SVGID_2_);fill:#FFFFFF;}
	.st1{clip-path:url(#SVGID_2_);fill:none;stroke:#00A9D4;stroke-width:0.75;}
	.st2{clip-path:url(#SVGID_2_);fill:#00A9D4;}
</style>
<g>
	<defs>
		<rect id="SVGID_1_" width="8.1" height="8.2"/>
	</defs>
	<clipPath id="SVGID_2_">
		<use xlink:href="#SVGID_1_"  style="overflow:visible;"/>
	</clipPath>
	<path class="st0" d="M4.1,7.8c2,0,3.7-1.7,3.7-3.7S6.1,0.4,4.1,0.4S0.4,2,0.4,4.1S2,7.8,4.1,7.8"/>
	<path class="st1" d="M4.1,7.8c2,0,3.7-1.7,3.7-3.7S6.1,0.4,4.1,0.4S0.4,2,0.4,4.1S2,7.8,4.1,7.8z"/>
	<path class="st2" d="M4.1,6.3c1.2,0,2.2-1,2.2-2.2c0-1.2-1-2.2-2.2-2.2s-2.2,1-2.2,2.2C1.9,5.3,2.9,6.3,4.1,6.3"/>
</g>
</svg>
