<svg xmlns="http://www.w3.org/2000/svg" viewBox="0 0 102.1 85.1"><path d="M84.8 34.2c1 2.3 1.6 4.7 1.6 7.4 0 8.8-6.2 16.2-14.5 18.1-5.5-11.7-15.5-13.1-20-13.1l-.1-.4c-1.1-3.1-2.7-7.5.2-13.9 3.1-5.5 9-9.3 15.8-9.3 5.8 0 10.9 2.7 14.3 6.8L64.1 0H38.5L20.4 29.6c3.4-4 8.4-6.6 14-6.6 6.2 0 11.5 3 14.9 7.6-3.6 7.7-1.6 13.3-.5 16.5.2.5.3.9.5 1.3l.1.6c-3.7 8.2-12.8 11.9-19.9 10.4-7.9-2.2-13.7-9.3-13.7-17.8 0-2.6.6-5 1.6-7.2L0 63.3 13.2 85l35.5.1c-9-1.3-15.9-9-15.9-18.3 0-1.4.2-2.7.5-4 7.6-.2 15.9-4.8 19.3-13.2 4 .2 11.5 1.8 16.2 10.6.8 2.1 1.2 4.3 1.2 6.6 0 9.4-7 17-16 18.3l35-.1 13.2-21.7-17.4-29.1" fill="#e20917"/></svg>