<?xml version="1.0" encoding="utf-8"?>
<!-- Generator: Adobe Illustrator 22.0.1, SVG Export Plug-In . SVG Version: 6.00 Build 0)  -->
<svg version="1.1" id="Calque_1" xmlns="http://www.w3.org/2000/svg" xmlns:xlink="http://www.w3.org/1999/xlink" x="0px" y="0px"
	 viewBox="0 0 400 400" style="enable-background:new 0 0 400 400;" xml:space="preserve">
<style type="text/css">
	.st0{fill:#EC384B;}
	.st1{fill:#FFFFFF;}
</style>
<title>Plan de travail 1</title>
<g id="Dark_Blue">
	<rect class="st0" width="400" height="400"/>
</g>
<g>
	<g>
		<path class="st1" d="M273.1,178.6c-0.1-0.2-0.1-0.4-0.2-0.5c-0.6-2.1-1.4-4.2-2.2-6.3c-0.1-0.2-0.2-0.5-0.3-0.7
			c-0.8-2-1.8-4-2.8-5.9c-0.1-0.3-0.3-0.6-0.4-0.9c-0.3-0.6-0.7-1.2-1-1.8l9.6-19.5l-19.3-19.3l-19.7,9.7c-0.4-0.2-0.7-0.4-1.1-0.6
			c-0.3-0.2-0.6-0.3-0.9-0.4c-2-1-3.9-1.9-5.9-2.8c-0.2-0.1-0.5-0.2-0.7-0.3c-2.1-0.8-4.2-1.6-6.3-2.2c-0.2-0.1-0.4-0.1-0.5-0.2
			c-0.1,0-0.2,0-0.2-0.1L214,106h-27.3l-7,20.6c-0.4,0.1-0.7,0.2-1.1,0.3c-0.2,0.1-0.4,0.1-0.5,0.2c-2.1,0.6-4.2,1.4-6.3,2.2
			c-0.2,0.1-0.5,0.2-0.7,0.3c-2,0.8-4,1.8-5.9,2.8c-0.3,0.1-0.6,0.3-0.8,0.4c-0.4,0.2-0.7,0.4-1.1,0.6l-19.7-9.7l-19.3,19.3
			l9.6,19.5c-0.3,0.6-0.7,1.2-1,1.8c-0.2,0.3-0.3,0.6-0.4,0.9c-1,2-1.9,3.9-2.8,5.9c-0.1,0.2-0.2,0.5-0.3,0.7
			c-0.8,2.1-1.6,4.2-2.2,6.3c-0.1,0.2-0.1,0.4-0.2,0.5c-0.1,0.4-0.2,0.7-0.3,1.1l-20.6,7V214l20.8,7.1c0,0.1,0,0.2,0.1,0.3
			c0.1,0.2,0.1,0.4,0.2,0.5c0.6,2.1,1.4,4.2,2.2,6.3c0.1,0.2,0.2,0.5,0.3,0.7c0.8,2,1.8,4,2.8,5.9c0.1,0.3,0.3,0.6,0.4,0.9
			c0.3,0.6,0.7,1.2,1,1.8l-9.6,19.5l19.3,19.3l19.7-9.7c0.4,0.2,0.7,0.4,1.1,0.6c0.3,0.2,0.6,0.3,0.9,0.4c2,1,3.9,1.9,5.9,2.8
			c0.2,0.1,0.5,0.2,0.7,0.3c2.1,0.8,4.2,1.6,6.3,2.2c0.2,0.1,0.4,0.1,0.5,0.2c0.1,0,0.2,0,0.3,0.1L186,294h27.3l7-20.6
			c0.4-0.1,0.7-0.2,1.1-0.3c0.2-0.1,0.4-0.1,0.5-0.2c2.1-0.6,4.2-1.4,6.3-2.2c0.2-0.1,0.5-0.2,0.7-0.3c2-0.8,4-1.8,5.9-2.8
			c0.3-0.1,0.6-0.3,0.9-0.4c0.4-0.2,0.7-0.4,1.1-0.6l19.7,9.7l19.3-19.3l-9.6-19.5c0.3-0.6,0.7-1.2,1-1.8c0.2-0.3,0.3-0.6,0.4-0.8
			c1-2,1.9-3.9,2.8-5.9c0.1-0.2,0.2-0.5,0.3-0.7c0.8-2.1,1.6-4.2,2.2-6.3c0.1-0.2,0.1-0.4,0.2-0.5c0.1-0.4,0.2-0.7,0.3-1.1l20.6-7
			V186l-20.8-7.1C273.2,178.8,273.1,178.7,273.1,178.6z M211,253c0,0-0.1,0-0.1,0c-1.5,0.3-3,0.5-4.6,0.7c-0.3,0-0.5,0.1-0.8,0.1
			c-1.8,0.2-3.6,0.3-5.5,0.3s-3.7-0.1-5.5-0.3c-0.3,0-0.5-0.1-0.8-0.1c-1.5-0.2-3.1-0.4-4.6-0.7c0,0-0.1,0-0.1,0
			c-21-4.4-37.6-21-42-42c0,0,0-0.1,0-0.1c-0.3-1.5-0.5-3-0.7-4.6c0-0.3-0.1-0.5-0.1-0.8c-0.2-1.8-0.3-3.6-0.3-5.5s0.1-3.7,0.3-5.5
			c0-0.3,0.1-0.5,0.1-0.8c0.2-1.6,0.4-3.1,0.7-4.6c0,0,0-0.1,0-0.1c4.4-21,21-37.6,42-42c0,0,0.1,0,0.1,0c1.5-0.3,3.1-0.5,4.6-0.7
			c0.3,0,0.5-0.1,0.8-0.1c1.8-0.2,3.6-0.3,5.5-0.3c1.9,0,3.7,0.1,5.5,0.3c0.3,0,0.5,0.1,0.8,0.1c1.6,0.2,3.1,0.4,4.6,0.7
			c0,0,0.1,0,0.1,0c21,4.4,37.6,21,42,42c0,0,0,0.1,0,0.1c0.3,1.5,0.5,3,0.7,4.6c0,0.3,0.1,0.5,0.1,0.8c0.2,1.8,0.3,3.6,0.3,5.5
			c0,1.9-0.1,3.7-0.3,5.5c0,0.3-0.1,0.5-0.1,0.8c-0.2,1.5-0.4,3.1-0.7,4.6c0,0,0,0.1,0,0.1C248.6,232.1,232,248.6,211,253z"/>
		<circle class="st1" cx="200" cy="200" r="8.3"/>
	</g>
</g>
</svg>
