<svg id="Calque_1" xmlns="http://www.w3.org/2000/svg" viewBox="0 0 400 400"><style>.st1{fill:#fff}</style><path fill="#ec384b" d="M0 0h400v400H0z" id="Dark_Blue"/><path class="st1" d="M273.1 178.6c-.1-.2-.1-.4-.2-.5-.6-2.1-1.4-4.2-2.2-6.3-.1-.2-.2-.5-.3-.7-.8-2-1.8-4-2.8-5.9-.1-.3-.3-.6-.4-.9-.3-.6-.7-1.2-1-1.8l9.6-19.5-19.3-19.3-19.7 9.7c-.4-.2-.7-.4-1.1-.6-.3-.2-.6-.3-.9-.4-2-1-3.9-1.9-5.9-2.8-.2-.1-.5-.2-.7-.3-2.1-.8-4.2-1.6-6.3-2.2-.2-.1-.4-.1-.5-.2-.1 0-.2 0-.2-.1L214 106h-27.3l-7 20.6c-.4.1-.7.2-1.1.3-.2.1-.4.1-.5.2-2.1.6-4.2 1.4-6.3 2.2-.2.1-.5.2-.7.3-2 .8-4 1.8-5.9 2.8-.3.1-.6.3-.8.4-.4.2-.7.4-1.1.6l-19.7-9.7-19.3 19.3 9.6 19.5c-.3.6-.7 1.2-1 1.8-.2.3-.3.6-.4.9-1 2-1.9 3.9-2.8 5.9-.1.2-.2.5-.3.7-.8 2.1-1.6 4.2-2.2 6.3-.1.2-.1.4-.2.5-.1.4-.2.7-.3 1.1l-20.6 7V214l20.8 7.1c0 .1 0 .2.1.3.1.2.1.4.2.5.6 2.1 1.4 4.2 2.2 6.3.1.2.2.5.3.7.8 2 1.8 4 2.8 5.9.1.3.3.6.4.9.3.6.7 1.2 1 1.8l-9.6 19.5 19.3 19.3 19.7-9.7c.4.2.7.4 1.1.6.3.2.6.3.9.4 2 1 3.9 1.9 5.9 2.8.2.1.5.2.7.3 2.1.8 4.2 1.6 6.3 2.2.2.1.4.1.5.2.1 0 .2 0 .3.1l7 20.8h27.3l7-20.6c.4-.1.7-.2 1.1-.3.2-.1.4-.1.5-.2 2.1-.6 4.2-1.4 6.3-2.2.2-.1.5-.2.7-.3 2-.8 4-1.8 5.9-2.8.3-.1.6-.3.9-.4.4-.2.7-.4 1.1-.6l19.7 9.7 19.3-19.3-9.6-19.5c.3-.6.7-1.2 1-1.8.2-.3.3-.6.4-.8 1-2 1.9-3.9 2.8-5.9.1-.2.2-.5.3-.7.8-2.1 1.6-4.2 2.2-6.3.1-.2.1-.4.2-.5.1-.4.2-.7.3-1.1l20.6-7V186l-20.8-7.1c0-.1-.1-.2-.1-.3zM211 253h-.1c-1.5.3-3 .5-4.6.7-.3 0-.5.1-.8.1-1.8.2-3.6.3-5.5.3s-3.7-.1-5.5-.3c-.3 0-.5-.1-.8-.1-1.5-.2-3.1-.4-4.6-.7h-.1c-21-4.4-37.6-21-42-42v-.1c-.3-1.5-.5-3-.7-4.6 0-.3-.1-.5-.1-.8-.2-1.8-.3-3.6-.3-5.5s.1-3.7.3-5.5c0-.3.1-.5.1-.8.2-1.6.4-3.1.7-4.6v-.1c4.4-21 21-37.6 42-42h.1c1.5-.3 3.1-.5 4.6-.7.3 0 .5-.1.8-.1 1.8-.2 3.6-.3 5.5-.3s3.7.1 5.5.3c.3 0 .5.1.8.1 1.6.2 3.1.4 4.6.7h.1c21 4.4 37.6 21 42 42v.1c.3 1.5.5 3 .7 4.6 0 .3.1.5.1.8.2 1.8.3 3.6.3 5.5s-.1 3.7-.3 5.5c0 .3-.1.5-.1.8-.2 1.5-.4 3.1-.7 4.6v.1c-4.4 21.1-21 37.6-42 42z"/><circle class="st1" cx="200" cy="200" r="8.3"/></svg>