<svg id="Calque_1" xmlns="http://www.w3.org/2000/svg" viewBox="0 0 400 400"><style>.st1{fill:#fff}</style><path fill="#69747c" d="M0 0h400v400H0z" id="Dark_Blue"/><path class="st1" d="M241.7 150.9c6.5 0 11.8-5.2 11.8-11.8v-12.3c0-6.5-5.3-11.8-11.8-11.8-6.5 0-11.8 5.3-11.8 11.8v12.3c0 6.6 5.3 11.8 11.8 11.8z"/><path class="st1" d="M283.5 135.5h-23.7v6c0 9.9-8 17.9-17.9 17.9-9.9 0-17.9-8.1-17.9-17.9v-6h-47.9v6c0 9.9-8 17.9-17.9 17.9s-17.9-8.1-17.9-17.9v-6l-23.9-.3V285h167.4l-.3-149.5zM271.8 273H128.3v-95.7h143.5V273z"/><path class="st1" d="M158 150.9c6.5 0 11.8-5.2 11.8-11.8v-12.3c0-6.5-5.3-11.8-11.8-11.8-6.5 0-11.8 5.3-11.8 11.8v12.3c0 6.6 5.3 11.8 11.8 11.8zm18.1 39.3h18.8v16.6h-18.8zm30.5 0h18.9v16.6h-18.9zm28.3 0h18.8v16.6h-18.8zm-58.8 27.6h18.8v16.6h-18.8zm30.5 0h18.9v16.6h-18.9zm28.3 0h18.8v16.6h-18.8zM176.1 246h18.8v16.6h-18.8zm-29.9-28.2H165v16.6h-18.8zm0 28.2H165v16.6h-18.8zm60.4 0h18.9v16.6h-18.9zm28.3 0h18.8v16.6h-18.8z"/></svg>