<?xml version="1.0" encoding="utf-8"?>
<!-- Generator: Adobe Illustrator 22.0.1, SVG Export Plug-In . SVG Version: 6.00 Build 0)  -->
<svg version="1.1" id="Calque_1" xmlns="http://www.w3.org/2000/svg" xmlns:xlink="http://www.w3.org/1999/xlink" x="0px" y="0px"
	 viewBox="0 0 400 400" style="enable-background:new 0 0 400 400;" xml:space="preserve">
<style type="text/css">
	.st0{fill:#69747C;}
	.st1{fill:#FFFFFF;}
</style>
<title>Plan de travail 1</title>
<g id="Dark_Blue">
	<rect class="st0" width="400" height="400"/>
</g>
<g>
	<path class="st1" d="M241.7,150.9c6.5,0,11.8-5.2,11.8-11.8v-12.3c0-6.5-5.3-11.8-11.8-11.8c-6.5,0-11.8,5.3-11.8,11.8v12.3
		C229.9,145.7,235.2,150.9,241.7,150.9z"/>
	<path class="st1" d="M283.5,135.5h-23.7v6c0,9.9-8,17.9-17.9,17.9c-9.9,0-17.9-8.1-17.9-17.9v-6h-47.9v6c0,9.9-8,17.9-17.9,17.9
		s-17.9-8.1-17.9-17.9v-6l-23.9-0.3v149.8h12h143.5l11.9,0L283.5,135.5z M271.8,273H128.3v-95.7h143.5V273z"/>
	<path class="st1" d="M158,150.9c6.5,0,11.8-5.2,11.8-11.8v-12.3c0-6.5-5.3-11.8-11.8-11.8c-6.5,0-11.8,5.3-11.8,11.8v12.3
		C146.2,145.7,151.5,150.9,158,150.9z"/>
	<rect x="176.1" y="190.2" class="st1" width="18.8" height="16.6"/>
	<rect x="206.6" y="190.2" class="st1" width="18.9" height="16.6"/>
	<rect x="234.9" y="190.2" class="st1" width="18.8" height="16.6"/>
	<rect x="176.1" y="217.8" class="st1" width="18.8" height="16.6"/>
	<rect x="206.6" y="217.8" class="st1" width="18.9" height="16.6"/>
	<rect x="234.9" y="217.8" class="st1" width="18.8" height="16.6"/>
	<rect x="176.1" y="246" class="st1" width="18.8" height="16.6"/>
	<rect x="146.2" y="217.8" class="st1" width="18.8" height="16.6"/>
	<rect x="146.2" y="246" class="st1" width="18.8" height="16.6"/>
	<rect x="206.6" y="246" class="st1" width="18.9" height="16.6"/>
	<rect x="234.9" y="246" class="st1" width="18.8" height="16.6"/>
</g>
</svg>
