<svg id="svg-experience" data-name="Experience" xmlns="http://www.w3.org/2000/svg" viewBox="0 0 15 15"><title>Experience icon</title><path fill="#fff" class="cls-1" d="M13.07,13.86A1.15,1.15,0,0,1,11.92,15H3.08a1.15,1.15,0,0,1-1.15-1.14.53.53,0,0,1,0-.18L5,5.65s0,0,0,0V1H4.67a.5.5,0,0,1-.5-.5.51.51,0,0,1,.5-.5h.87A.5.5,0,0,1,6,.5V5.65a.19.19,0,0,1,0,.08.65.65,0,0,1,0,.2L4.15,10.77H10.8L8.9,5.94a.85.85,0,0,1,0-.17V.5a.5.5,0,0,1,.5-.5h.89a.5.5,0,0,1,0,1H9.86V5.64l3.17,8A.65.65,0,0,1,13.07,13.86ZM6.53,9.65a.38.38,0,0,1,.75,0,.38.38,0,1,1-.75,0Zm.25,0a.13.13,0,0,0,.13.13A.12.12,0,0,0,7,9.65a.12.12,0,0,0-.12-.12A.12.12,0,0,0,6.78,9.65Zm1.69-.37a.38.38,0,0,1,.76,0,.38.38,0,0,1-.76,0Zm.25,0a.12.12,0,0,0,.13.12A.12.12,0,0,0,9,9.28a.12.12,0,0,0-.12-.13A.13.13,0,0,0,8.72,9.28ZM7.43,8A.52.52,0,1,1,8,8.54.51.51,0,0,1,7.43,8Zm.25,0A.27.27,0,1,0,8,7.75.27.27,0,0,0,7.68,8Z"/></svg>