<svg data-name="Experience" xmlns="http://www.w3.org/2000/svg" viewBox="0 0 15 15"><path fill="#fff" class="cls-1" d="M13.07 13.86A1.15 1.15 0 0 1 11.92 15H3.08a1.15 1.15 0 0 1-1.15-1.14.53.53 0 0 1 0-.18L5 5.65V1h-.33a.5.5 0 0 1-.5-.5.51.51 0 0 1 .5-.5h.87A.5.5 0 0 1 6 .5v5.15a.19.19 0 0 1 0 .08.65.65 0 0 1 0 .2l-1.85 4.84h6.65L8.9 5.94a.85.85 0 0 1 0-.17V.5a.5.5 0 0 1 .5-.5h.89a.5.5 0 0 1 0 1h-.43v4.64l3.17 8a.65.65 0 0 1 .04.22zM6.53 9.65a.38.38 0 0 1 .75 0 .38.38 0 1 1-.75 0zm.25 0a.13.13 0 0 0 .13.13.12.12 0 0 0 .09-.13.12.12 0 0 0-.12-.12.12.12 0 0 0-.1.12zm1.69-.37a.38.38 0 0 1 .76 0 .38.38 0 0 1-.76 0zm.25 0a.12.12 0 0 0 .13.12.12.12 0 0 0 .15-.12.12.12 0 0 0-.12-.13.13.13 0 0 0-.16.13zM7.43 8a.52.52 0 1 1 .57.54.51.51 0 0 1-.57-.54zm.25 0A.27.27 0 1 0 8 7.75a.27.27 0 0 0-.32.25z"/></svg>