<?xml version="1.0" encoding="utf-8"?>
<!-- Generator: Adobe Illustrator 22.0.1, SVG Export Plug-In . SVG Version: 6.00 Build 0)  -->
<svg version="1.1" id="Capa_1" xmlns="http://www.w3.org/2000/svg" xmlns:xlink="http://www.w3.org/1999/xlink" x="0px" y="0px"
	 viewBox="0 0 512 512" style="enable-background:new 0 0 512 512;" xml:space="preserve">
<style type="text/css">
	.st0{fill:#FFFFFF;}
</style>
<g>
	<path class="st0" d="M465.6,481L340,216.6V48.8c12-1.6,21.3-11.9,21.3-24.4c0-13.6-11-24.6-24.6-24.6H175.2
		c-13.6,0-24.6,11-24.6,24.6c0,12.5,9.3,22.7,21.3,24.4v167.7L46.4,481c-3.3,6.6-2.9,14.5,1,20.8c3.9,6.3,10.8,10.1,18.2,10.1h380.8
		c7.4,0,14.3-3.8,18.2-10.1C468.5,495.5,468.9,487.7,465.6,481z M297.3,106.2V159v32.8v34.8l33.2,79H181.6l33.2-79V49.1h82.5v24.4
		V106.2z"/>
</g>
</svg>
