<?xml version="1.0" encoding="utf-8"?>
<!-- Generator: Adobe Illustrator 22.0.1, SVG Export Plug-In . SVG Version: 6.00 Build 0)  -->
<svg version="1.1" id="Calque_1" xmlns="http://www.w3.org/2000/svg" xmlns:xlink="http://www.w3.org/1999/xlink" x="0px" y="0px"
	 viewBox="0 0 400 400" style="enable-background:new 0 0 400 400;" xml:space="preserve">
<style type="text/css">
	.st0{fill:#E8E8E8;}
	.st1{fill-rule:evenodd;clip-rule:evenodd;fill:#221E1B;}
	.st2{fill:#221E1B;}
</style>
<g id="Dark_Blue">
	<rect class="st0" width="400" height="400"/>
</g>
<g id="Annotations">
</g>
<g>
	<path class="st1" d="M200,79.1c-68.4,0-123.9,55.5-123.9,123.9c0,54.8,35.5,101.2,84.8,117.6c6.2,1.1,8.5-2.7,8.5-6
		c0-3-0.1-12.7-0.2-23.1c-34.5,7.5-41.8-14.6-41.8-14.6c-5.6-14.3-13.8-18.1-13.8-18.1c-11.2-7.7,0.8-7.5,0.8-7.5
		c12.4,0.9,19,12.8,19,12.8c11.1,18.9,29,13.5,36.1,10.3c1.1-8,4.3-13.5,7.9-16.6c-27.5-3.1-56.5-13.8-56.5-61.3
		c0-13.5,4.8-24.6,12.8-33.3c-1.3-3.1-5.5-15.7,1.2-32.8c0,0,10.4-3.3,34.1,12.7c9.9-2.7,20.5-4.1,31-4.2c10.5,0,21.1,1.4,31.1,4.2
		c23.7-16,34.1-12.7,34.1-12.7c6.7,17.1,2.5,29.7,1.2,32.8c7.9,8.7,12.8,19.7,12.8,33.3c0,47.6-29,58.1-56.6,61.2
		c4.4,3.8,8.4,11.4,8.4,23c0,16.6-0.1,29.9-0.1,34c0,3.3,2.2,7.2,8.5,5.9c49.2-16.4,84.7-62.9,84.7-117.6
		C323.9,134.6,268.5,79.1,200,79.1z"/>
	<path class="st2" d="M123,257.1c-0.3,0.6-1.2,0.8-2.1,0.4c-0.9-0.4-1.4-1.2-1.1-1.9c0.3-0.6,1.2-0.8,2.1-0.4
		C122.8,255.6,123.3,256.5,123,257.1L123,257.1z M121.5,255.9"/>
	<path class="st2" d="M128,262.7c-0.6,0.5-1.7,0.3-2.5-0.6c-0.8-0.9-1-2-0.4-2.6c0.6-0.5,1.7-0.3,2.5,0.6
		C128.5,261,128.6,262.1,128,262.7L128,262.7z M126.8,261.4"/>
	<path class="st2" d="M132.9,269.8c-0.8,0.5-2,0-2.8-1.1c-0.8-1.1-0.8-2.4,0-3c0.8-0.5,2-0.1,2.8,1
		C133.7,268,133.7,269.3,132.9,269.8L132.9,269.8z M132.9,269.8"/>
	<path class="st2" d="M139.6,276.7c-0.7,0.7-2.1,0.5-3.2-0.5c-1.1-1-1.4-2.4-0.7-3.2c0.7-0.7,2.1-0.5,3.2,0.5
		C140,274.5,140.3,276,139.6,276.7L139.6,276.7z M139.6,276.7"/>
	<path class="st2" d="M148.8,280.7c-0.3,1-1.7,1.4-3.1,1c-1.4-0.4-2.3-1.6-2-2.5c0.3-1,1.7-1.4,3.1-1
		C148.2,278.6,149.1,279.7,148.8,280.7L148.8,280.7z M148.8,280.7"/>
	<path class="st2" d="M159,281.5c0,1-1.2,1.9-2.6,1.9c-1.5,0-2.7-0.8-2.7-1.8c0-1,1.2-1.9,2.6-1.9C157.8,279.6,159,280.4,159,281.5
		L159,281.5z M159,281.5"/>
	<path class="st2" d="M168.4,279.9c0.2,1-0.8,2-2.3,2.3c-1.4,0.3-2.8-0.4-3-1.3c-0.2-1,0.9-2,2.3-2.3
		C166.9,278.2,168.2,278.8,168.4,279.9L168.4,279.9z M168.4,279.9"/>
</g>
</svg>
