<svg xmlns="http://www.w3.org/2000/svg" viewBox="0 0 400 400"><path d="M351.8 193.1c-2.1-2.3-30-37.3-35-43.3s-7.3-4.9-10.4-4.4c-3.1.5-38.5 6.4-42.6 7.1s-6.7 2.3-4.2 5.9c2.3 3.1 25.6 36.2 30.7 43.5l-92.7 22.2L124 100.9c-2.9-4.3-3.6-5.9-10.2-5.5-6.7.3-57.8 4.5-61.4 4.8-3.6.3-7.7 1.9-4 10.5 3.6 8.6 61.7 133.7 63.3 137.3 1.6 3.6 5.8 9.5 15.7 7.2 10.1-2.4 45.1-11.6 64.2-16.5 10.1 18.3 30.7 55.4 34.5 60.7 5.1 7.1 8.6 5.9 16.4 3.6 6.1-1.8 95.4-33.9 99.5-35.6 4-1.6 6.5-2.8 3.8-6.9-2-3-25.6-34.5-37.9-51.1 8.4-2.3 38.5-10.2 41.8-11.1 3.7-1.1 4.2-2.9 2.1-5.2zm-168.4 34.5c-1.1.2-53 12.6-55.7 13.3s-2.8.3-3.1-.6c-.3-.9-61.7-127.5-62.6-129.1-.9-1.6-.8-2.8 0-2.8s49-4.3 50.7-4.4c1.7-.1 1.5.3 2.1 1.3 0 0 68 117.3 69.2 119.4 1.2 2 .5 2.6-.6 2.9zM329.7 255c.9 1.3 1.6 2.1-.9 3.1-2.6.9-87.8 29.7-89.5 30.4-1.6.7-3 .9-5.1-2.1-2.1-3.1-29.8-51.1-29.8-51.1l90.3-23.5c2.3-.7 3-1.2 4.4 1.1 1.4 2.2 29.8 40.8 30.6 42.1zm5.8-64.2c-2.1.4-35.2 8.7-35.2 8.7l-27.1-37.2c-.8-1.1-1.4-2.1.5-2.4 1.9-.3 32.7-5.8 34.1-6.1 1.4-.3 2.6-.7 4.3 1.6 1.7 2.3 25.1 32 26.1 33.2.8 1.1-.7 1.8-2.7 2.2z" fill="#fb503b"/></svg>