<?xml version="1.0" encoding="utf-8"?>
<!-- Generator: Adobe Illustrator 22.0.1, SVG Export Plug-In . SVG Version: 6.00 Build 0)  -->
<svg version="1.1" id="Calque_1" xmlns="http://www.w3.org/2000/svg" xmlns:xlink="http://www.w3.org/1999/xlink" x="0px" y="0px"
	 viewBox="0 0 400 400" style="enable-background:new 0 0 400 400;" xml:space="preserve">
<style type="text/css">
	.st0{fill:#FB503B;}
</style>
<title>Plan de travail 1</title>
<path class="st0" d="M351.8,193.1c-2.1-2.3-30-37.3-35-43.3c-5-6-7.3-4.9-10.4-4.4c-3.1,0.5-38.5,6.4-42.6,7.1s-6.7,2.3-4.2,5.9
	c2.3,3.1,25.6,36.2,30.7,43.5l-92.7,22.2l-73.6-123.2c-2.9-4.3-3.6-5.9-10.2-5.5c-6.7,0.3-57.8,4.5-61.4,4.8
	c-3.6,0.3-7.7,1.9-4,10.5c3.6,8.6,61.7,133.7,63.3,137.3c1.6,3.6,5.8,9.5,15.7,7.2c10.1-2.4,45.1-11.6,64.2-16.5
	c10.1,18.3,30.7,55.4,34.5,60.7c5.1,7.1,8.6,5.9,16.4,3.6c6.1-1.8,95.4-33.9,99.5-35.6c4-1.6,6.5-2.8,3.8-6.9
	c-2-3-25.6-34.5-37.9-51.1c8.4-2.3,38.5-10.2,41.8-11.1C353.4,197.2,353.9,195.4,351.8,193.1z M183.4,227.6
	c-1.1,0.2-53,12.6-55.7,13.3s-2.8,0.3-3.1-0.6c-0.3-0.9-61.7-127.5-62.6-129.1c-0.9-1.6-0.8-2.8,0-2.8s49-4.3,50.7-4.4
	c1.7-0.1,1.5,0.3,2.1,1.3c0,0,68,117.3,69.2,119.4C185.2,226.7,184.5,227.3,183.4,227.6z M329.7,255c0.9,1.3,1.6,2.1-0.9,3.1
	c-2.6,0.9-87.8,29.7-89.5,30.4c-1.6,0.7-3,0.9-5.1-2.1c-2.1-3.1-29.8-51.1-29.8-51.1l90.3-23.5c2.3-0.7,3-1.2,4.4,1.1
	C300.5,215.1,328.9,253.7,329.7,255z M335.5,190.8c-2.1,0.4-35.2,8.7-35.2,8.7l-27.1-37.2c-0.8-1.1-1.4-2.1,0.5-2.4
	c1.9-0.3,32.7-5.8,34.1-6.1c1.4-0.3,2.6-0.7,4.3,1.6c1.7,2.3,25.1,32,26.1,33.2C339,189.7,337.5,190.4,335.5,190.8z"/>
</svg>
