<?xml version="1.0" encoding="utf-8"?>
<!-- Generator: Adobe Illustrator 22.0.1, SVG Export Plug-In . SVG Version: 6.00 Build 0)  -->
<svg version="1.1" id="Calque_1" xmlns="http://www.w3.org/2000/svg" xmlns:xlink="http://www.w3.org/1999/xlink" x="0px" y="0px"
	 viewBox="0 0 400 400" style="enable-background:new 0 0 400 400;" xml:space="preserve">
<style type="text/css">
	.st0{fill:#0076B3;}
	.st1{fill:#FFFFFF;}
</style>
<title>Plan de travail 1</title>
<g id="Dark_Blue">
	<rect class="st0" width="400" height="400"/>
</g>
<g>
	<path class="st1" d="M95.3,163.7h44.9v144.4H95.3V163.7z M117.8,91.9c14.4,0,26,11.6,26,26c0,14.4-11.6,26-26,26s-26-11.6-26-26
		C91.8,103.6,103.4,91.9,117.8,91.9"/>
	<path class="st1" d="M168.3,163.7h43v19.7h0.6c6-11.4,20.6-23.3,42.5-23.3c45.4,0,53.8,29.9,53.8,68.8v79.2h-44.8v-70.2
		c0-16.8-0.3-38.3-23.3-38.3c-23.4,0-26.9,18.2-26.9,37.1v71.4h-44.9V163.7z"/>
</g>
</svg>
