<?xml version="1.0" encoding="utf-8"?>
<!-- Generator: Adobe Illustrator 22.0.1, SVG Export Plug-In . SVG Version: 6.00 Build 0)  -->
<svg version="1.1" id="Calque_1" xmlns="http://www.w3.org/2000/svg" xmlns:xlink="http://www.w3.org/1999/xlink" x="0px" y="0px"
	 viewBox="0 0 400 400" style="enable-background:new 0 0 400 400;" xml:space="preserve">
<style type="text/css">
	.st0{fill:#1EB8D0;}
	.st1{fill:#FFFFFF;}
</style>
<title>Plan de travail 1</title>
<g id="Dark_Blue">
	<rect class="st0" width="400" height="400"/>
</g>
<g>
	<path class="st1" d="M200,108.8c-37,0-67.2,30.1-67.2,67.2c0,9.6,2,18.9,5.9,27.4c16.8,36.8,49,75.5,58.4,86.5
		c0.7,0.8,1.8,1.3,2.8,1.3s2.1-0.5,2.8-1.3c9.5-11,41.6-49.8,58.4-86.5c3.9-8.5,5.9-17.7,5.9-27.4C267.2,139,237,108.8,200,108.8z
		 M200,210.8c-19.2,0-34.9-15.7-34.9-34.9S180.8,141,200,141s34.9,15.7,34.9,34.9S219.2,210.8,200,210.8z"/>
</g>
</svg>
