<?xml version="1.0" encoding="utf-8"?>
<!-- Generator: Adobe Illustrator 22.0.1, SVG Export Plug-In . SVG Version: 6.00 Build 0)  -->
<svg version="1.1" id="Calque_1" xmlns="http://www.w3.org/2000/svg" xmlns:xlink="http://www.w3.org/1999/xlink" x="0px" y="0px"
   viewBox="0 0 136.8 136.8" style="enable-background:new 0 0 136.8 136.8;" xml:space="preserve">
<style type="text/css">
  .st0{fill:url(#SVGID_1_);}
  .st1{fill:#FFFFFF;}
  .st2{fill:#404951;}
  .st3{opacity:0.2;}
  .st4{fill:none;stroke:#FFFFFF;stroke-width:0.25;stroke-miterlimit:10;}
  .st5{fill:#F3F7F9;}
</style>
<g>
  <g>
    <linearGradient id="SVGID_1_" gradientUnits="userSpaceOnUse" x1="3.1251" y1="66.952" x2="130.6935" y2="66.952">
      <stop  offset="0" style="stop-color:#00AAD5"/>
      <stop  offset="4.107649e-02" style="stop-color:#00A5BF"/>
      <stop  offset="9.881720e-02" style="stop-color:#0CA0A5"/>
      <stop  offset="0.1587" style="stop-color:#169C91"/>
      <stop  offset="0.2207" style="stop-color:#1A9983"/>
      <stop  offset="0.2863" style="stop-color:#1D977B"/>
      <stop  offset="0.3614" style="stop-color:#1D9678"/>
      <stop  offset="1" style="stop-color:#00AAD5"/>
    </linearGradient>
    <polygon class="st0" points="40.5,130.7 3.2,93.4 3.1,40.6 40.5,3.2 93.3,3.2 130.7,40.5 130.7,93.3 93.3,130.7    "/>
    <path class="st1" d="M93.3,3.3l37.3,37.3v52.7l-37.3,37.3H40.5L3.3,93.3V40.6L40.5,3.3H93.3 M93.4,3h-0.1H40.5h-0.1l-0.1,0.1
      L3.1,40.4L3,40.5v0.1v52.7v0.1l0.1,0.1l37.3,37.3l0.1,0.1h0.1h52.7h0.1l0.1-0.1l37.3-37.3l0.1-0.1v-0.1V40.6v-0.1l-0.1-0.1L93.4,3
      L93.4,3L93.4,3z"/>
  </g>
</g>
<g>
  <g>
    <polygon class="st2" points="10,89.6 6.7,41.9 43.5,9.2 87.4,17.5 108.3,50.4 107.4,83.5 87.4,116.4 43.3,123.4    "/>
    <path class="st1" d="M43.6,9.3l43.7,8.3l20.8,32.8l-0.8,33.1l-20,32.9l-44,6.9L10.2,89.6L6.9,41.9L43.6,9.3 M43.5,9L6.6,41.8
      l3.3,47.8l33.3,33.8l44.2-6.9l20.1-33l0.8-33.2l-20.9-33L43.5,9L43.5,9z"/>
  </g>
  <g>
    <circle class="st1" cx="43.4" cy="123.4" r="1.1"/>
  </g>
  <g>
    <circle class="st1" cx="87.5" cy="116.3" r="1.1"/>
  </g>
  <g>
    <circle class="st1" cx="107.5" cy="83.5" r="1.1"/>
  </g>
  <g>
    <circle class="st1" cx="108.3" cy="49.5" r="1.1"/>
  </g>
  <g>
    <circle class="st1" cx="87.5" cy="17.1" r="1.1"/>
  </g>
  <g>
    <circle class="st1" cx="43.7" cy="9.1" r="1.1"/>
  </g>
  <g>
    <circle class="st1" cx="6.9" cy="41.6" r="1.1"/>
  </g>
  <g>
    <circle class="st1" cx="9.9" cy="89.6" r="1.1"/>
  </g>
</g>
<g class="st3">
  <polygon class="st4" points="87.5,17.3 46.4,17.3 17.3,46.4 17.3,87.5 46.4,116.6 87.5,116.6 116.5,87.5 116.5,46.4  "/>
  <polygon class="st4" points="81.8,31.4 52.5,31.4 31.7,52.2 31.7,81.5 52.5,102.3 81.8,102.3 102.6,81.5 102.6,52.2  "/>
  <polygon class="st4" points="76,45.6 58.3,45.6 45.9,58 45.9,75.7 58.3,88.1 76,88.1 88.4,75.7 88.4,58  "/>
  <line class="st4" x1="93.3" y1="3.2" x2="40.5" y2="130.5"/>
  <line class="st4" x1="93.3" y1="130.5" x2="40.5" y2="3.2"/>
  <line class="st4" x1="3.2" y1="93.2" x2="130.7" y2="40.5"/>
  <line class="st4" x1="3.2" y1="40.5" x2="130.7" y2="93.2"/>
  <circle class="st5" cx="66.9" cy="66.7" r="1.1"/>
  <polygon class="st4" points="70.1,59.8 64.2,59.8 60.1,63.9 60.1,69.8 64.2,73.9 70.1,73.9 74.2,69.8 74.2,63.9  "/>
</g>
</svg>
