<svg id="Calque_1" xmlns="http://www.w3.org/2000/svg" viewBox="0 0 136.8 136.8"><style>.st1{fill:#fff}.st4{fill:none;stroke:#fff;stroke-width:.25;stroke-miterlimit:10}</style><linearGradient id="SVGID_1_" gradientUnits="userSpaceOnUse" x1="3.125" y1="66.952" x2="130.694" y2="66.952"><stop offset="0" stop-color="#00aad5"/><stop offset=".041" stop-color="#00a5bf"/><stop offset=".099" stop-color="#0ca0a5"/><stop offset=".159" stop-color="#169c91"/><stop offset=".221" stop-color="#1a9983"/><stop offset=".286" stop-color="#1d977b"/><stop offset=".361" stop-color="#1d9678"/><stop offset="1" stop-color="#00aad5"/></linearGradient><path fill="url(#SVGID_1_)" d="M40.5 130.7L3.2 93.4l-.1-52.8L40.5 3.2h52.8l37.4 37.3v52.8l-37.4 37.4z"/><path class="st1" d="M93.3 3.3l37.3 37.3v52.7l-37.3 37.3H40.5L3.3 93.3V40.6L40.5 3.3h52.8m.1-.3h-53l-.1.1L3.1 40.4l-.1.1v52.9l.1.1 37.3 37.3.1.1h52.9l.1-.1 37.3-37.3.1-.1V40.5l-.1-.1L93.4 3z"/><path fill="#404951" d="M10 89.6L6.7 41.9 43.5 9.2l43.9 8.3 20.9 32.9-.9 33.1-20 32.9-44.1 7z"/><path class="st1" d="M43.6 9.3l43.7 8.3 20.8 32.8-.8 33.1-20 32.9-44 6.9-33.1-33.7-3.3-47.7L43.6 9.3m-.1-.3L6.6 41.8l3.3 47.8 33.3 33.8 44.2-6.9 20.1-33 .8-33.2-20.9-33L43.5 9z"/><circle class="st1" cx="43.4" cy="123.4" r="1.1"/><circle class="st1" cx="87.5" cy="116.3" r="1.1"/><circle class="st1" cx="107.5" cy="83.5" r="1.1"/><circle class="st1" cx="108.3" cy="49.5" r="1.1"/><circle class="st1" cx="87.5" cy="17.1" r="1.1"/><circle class="st1" cx="43.7" cy="9.1" r="1.1"/><circle class="st1" cx="6.9" cy="41.6" r="1.1"/><circle class="st1" cx="9.9" cy="89.6" r="1.1"/><g opacity=".2"><path class="st4" d="M87.5 17.3H46.4L17.3 46.4v41.1l29.1 29.1h41.1l29-29.1V46.4z"/><path class="st4" d="M81.8 31.4H52.5L31.7 52.2v29.3l20.8 20.8h29.3l20.8-20.8V52.2z"/><path class="st4" d="M76 45.6H58.3L45.9 58v17.7l12.4 12.4H76l12.4-12.4V58zM93.3 3.2L40.5 130.5m52.8 0L40.5 3.2m-37.3 90l127.5-52.7m-127.5 0l127.5 52.7"/><circle cx="66.9" cy="66.7" r="1.1" fill="#f3f7f9"/><path class="st4" d="M70.1 59.8h-5.9l-4.1 4.1v5.9l4.1 4.1h5.9l4.1-4.1v-5.9z"/></g></svg>