<svg xmlns="http://www.w3.org/2000/svg" width="512" height="512" viewBox="0 0 479.79 479.79"><path d="M478.409 116.617a11.021 11.021 0 0 0-18.77-6.847l-62.015 62.011-68.749-21.768-21.768-68.748 62.016-62.016a11.021 11.021 0 0 0 2.563-11.565 11.032 11.032 0 0 0-9.417-7.207c-37.663-3.245-74.566 10.202-101.247 36.887-36.542 36.545-46.219 89.911-29.083 135.399a93.819 93.819 0 0 0-5.544 5.053L19.386 373.152c-.073.071-.145.149-.224.219-24.345 24.346-24.345 63.959 0 88.309 24.349 24.344 63.672 24.048 88.013-.298a4.28 4.28 0 0 0 .297-.305l193.632-208.621a73.124 73.124 0 0 0 4.949-5.532c45.5 17.167 98.9 7.513 135.474-29.056 26.675-26.687 40.131-63.593 36.882-101.251zM75.98 435.38c-8.971 8.969-23.5 8.963-32.47 0-8.967-8.961-8.967-23.502 0-32.466 8.97-8.963 23.499-8.963 32.47 0 8.967 8.964 8.967 23.505 0 32.466z" fill="#FFF"/></svg>